<?xml version="1.0" encoding="iso-8859-1"?>
<!-- Uploaded to: SVG Repo, www.svgrepo.com, Generator: SVG Repo Mixer Tools -->
<!DOCTYPE svg PUBLIC "-//W3C//DTD SVG 1.1//EN" "http://www.w3.org/Graphics/SVG/1.1/DTD/svg11.dtd">
<svg fill="#000000" height="800px" width="800px" version="1.1" id="Capa_1" xmlns="http://www.w3.org/2000/svg" xmlns:xlink="http://www.w3.org/1999/xlink" 
	 viewBox="0 0 285 285" xml:space="preserve">
<path d="M227.5,20c0-11.046-8.954-20-20-20h-130c-11.046,0-20,8.954-20,20v245c0,11.046,8.954,20,20,20h130c11.046,0,20-8.954,20-20
	V20z M201.5,249h-118v-25h118V249z M134.348,129.52c0-7.048,5.714-12.762,12.762-12.762c7.048,0,12.762,5.714,12.762,12.762
	c0,7.048-5.714,12.762-12.762,12.762C140.062,142.282,134.348,136.568,134.348,129.52z M173.336,129.52
	c0-7.048,5.714-12.762,12.762-12.762c7.048,0,12.762,5.714,12.762,12.762c0,7.048-5.714,12.762-12.762,12.762
	C179.049,142.282,173.336,136.568,173.336,129.52z M201.5,94h-118V68h118V94z M201.5,48h-118V22h118V48z"/>
</svg>